<svg width="41" height="42" viewBox="0 0 41 42" fill="none" xmlns="http://www.w3.org/2000/svg">
<path d="M20.5046 10.1989C14.6873 10.1989 9.99504 14.9912 9.99504 20.9326C9.99504 26.874 14.6873 31.6663 20.5046 31.6663C26.3219 31.6663 31.0141 26.874 31.0141 20.9326C31.0141 14.9912 26.3219 10.1989 20.5046 10.1989ZM20.5046 27.9109C16.7453 27.9109 13.672 24.7814 13.672 20.9326C13.672 17.0838 16.7361 13.9543 20.5046 13.9543C24.273 13.9543 27.3371 17.0838 27.3371 20.9326C27.3371 24.7814 24.2639 27.9109 20.5046 27.9109ZM33.8953 9.75984C33.8953 11.1518 32.7977 12.2634 31.444 12.2634C30.0812 12.2634 28.9927 11.1424 28.9927 9.75984C28.9927 8.37725 30.0903 7.25624 31.444 7.25624C32.7977 7.25624 33.8953 8.37725 33.8953 9.75984ZM40.8559 12.3008C40.7004 8.9471 39.9504 5.97641 37.5448 3.52886C35.1484 1.08131 32.2398 0.315285 28.9561 0.147133C25.5718 -0.0490444 15.4282 -0.0490444 12.0439 0.147133C8.76938 0.305944 5.86074 1.07197 3.45516 3.51952C1.04958 5.96707 0.308701 8.93776 0.14406 12.2915C-0.0480201 15.7479 -0.0480201 26.108 0.14406 29.5644C0.299554 32.9181 1.04958 35.8888 3.45516 38.3364C5.86074 40.7839 8.76023 41.5499 12.0439 41.7181C15.4282 41.9143 25.5718 41.9143 28.9561 41.7181C32.2398 41.5593 35.1484 40.7933 37.5448 38.3364C39.9413 35.8888 40.6913 32.9181 40.8559 29.5644C41.048 26.108 41.048 15.7573 40.8559 12.3008ZM36.4838 33.2731C35.7704 35.1041 34.3892 36.5147 32.5873 37.2527C29.8891 38.3457 23.4864 38.0935 20.5046 38.0935C17.5228 38.0935 11.1109 38.3364 8.42181 37.2527C6.62906 36.5241 5.24791 35.1135 4.52532 33.2731C3.45516 30.5173 3.70212 23.978 3.70212 20.9326C3.70212 17.8872 3.46431 11.3386 4.52532 8.59211C5.23876 6.76112 6.61991 5.35051 8.42181 4.61251C11.1201 3.51952 17.5228 3.77175 20.5046 3.77175C23.4864 3.77175 29.8982 3.52886 32.5873 4.61251C34.3801 5.34117 35.7612 6.75178 36.4838 8.59211C37.554 11.3479 37.307 17.8872 37.307 20.9326C37.307 23.978 37.554 30.5266 36.4838 33.2731Z" fill="#F7F8F2"/>
</svg>
